<svg xmlns="http://www.w3.org/2000/svg" viewBox="0 0 1182.71 969.73"><defs><style>.cls-1{fill:#e36d0d;}.cls-1,.cls-2{fill-rule:evenodd;}.cls-2{fill:#2b385b;}</style></defs><g id="Camada_2" data-name="Camada 2"><g id="Camada_1-2" data-name="Camada 1"><path class="cls-1" d="M565.08,153.12V20.92c0-18-21.27-27.54-34.75-15.67L7.07,468.66a20.62,20.62,0,0,0,0,31.09L530.33,964.41c13.48,11.88,34.75,2.32,34.75-15.67v-423c0-17-19.33-26.82-33.15-16.89L444,572.73a20.8,20.8,0,0,0-8.59,16.89v53.11c0,17.86-21,27.42-34.62,15.67l-181.15-158a20.75,20.75,0,0,1-.13-31.21L558,168.67a20.43,20.43,0,0,0,7-15.55Z"/><path class="cls-2" d="M747.36,89.61l-95-84.23c-13.44-12-34.63-2.45-34.63,15.54v423c0,17,19.34,26.95,33.06,16.89l88-63.89a20.76,20.76,0,0,0,8.59-16.77V326.94c0-17.86,21-27.42,34.5-15.67L963,469.29a20.89,20.89,0,0,1,.25,31.34L624.71,801a20.91,20.91,0,0,0-7,15.54V948.87c0,18,21.19,27.51,34.63,15.54l523.38-463.32a20.92,20.92,0,0,0,0-31.2Z"/></g></g></svg>